{
  "accessors": [
    {
      "bufferView": 1,
      "componentType": 5126,
      "count": 672,
      "max": [
        0.6146612167358398,
        0.8907780647277832,
        0.5767641663551331
      ],
      "min": [
        -0.6146602630615234,
        -0.8907780647277832,
        -0.5767642259597778
      ],
      "type": "VEC3"
    },
    {
      "bufferView": 1,
      "byteOffset": 8064,
      "componentType": 5126,
      "count": 672,
      "max": [
        0.991093635559082,
        0.9176511168479919,
        0.9834164381027222
      ],
      "min": [
        -0.9910913109779358,
        -0.9176474213600159,
        -0.983415961265564
      ],
      "type": "VEC3"
    },
    {
      "bufferView": 0,
      "componentType": 5125,
      "count": 672,
      "type": "SCALAR"
    },
    {
      "bufferView": 1,
      "byteOffset": 16128,
      "componentType": 5126,
      "count": 13039,
      "max": [
        4.843671798706055,
        6.18826150894165,
        4.215311050415039
      ],
      "min": [
        -4.86487340927124,
        -6.18826150894165,
        -4.218005180358887
      ],
      "type": "VEC3"
    },
    {
      "bufferView": 1,
      "byteOffset": 172596,
      "componentType": 5126,
      "count": 13039,
      "max": [
        0.9994338750839233,
        0.999977707862854,
        0.9999440908432007
      ],
      "min": [
        -0.9994792342185974,
        -0.999999463558197,
        -0.9999786019325256
      ],
      "type": "VEC3"
    },
    {
      "bufferView": 0,
      "byteOffset": 2688,
      "componentType": 5125,
      "count": 77256,
      "type": "SCALAR"
    },
    {
      "bufferView": 1,
      "byteOffset": 329064,
      "componentType": 5126,
      "count": 5622,
      "max": [
        2.3301377296447754,
        6.139764785766602,
        3.1337668895721436
      ],
      "min": [
        -2.2953274250030518,
        -6.139770984649658,
        -3.109102249145508
      ],
      "type": "VEC3"
    },
    {
      "bufferView": 1,
      "byteOffset": 396528,
      "componentType": 5126,
      "count": 5622,
      "max": [
        0.9518814086914063,
        0.9999642372131348,
        0.9973995685577393
      ],
      "min": [
        -0.9994922876358032,
        -0.9999576807022095,
        -0.9995908141136169
      ],
      "type": "VEC3"
    },
    {
      "bufferView": 0,
      "byteOffset": 311712,
      "componentType": 5125,
      "count": 32808,
      "type": "SCALAR"
    },
    {
      "bufferView": 1,
      "byteOffset": 463992,
      "componentType": 5126,
      "count": 7986,
      "max": [
        3.786381244659424,
        6.28928804397583,
        3.2351455688476563
      ],
      "min": [
        -3.7756669521331787,
        -6.289281845092773,
        -3.276399612426758
      ],
      "type": "VEC3"
    },
    {
      "bufferView": 1,
      "byteOffset": 559824,
      "componentType": 5126,
      "count": 7986,
      "max": [
        0.9971358776092529,
        0.9999875426292419,
        0.9995627403259277
      ],
      "min": [
        -0.9998629093170166,
        -0.9999703764915466,
        -0.999919056892395
      ],
      "type": "VEC3"
    },
    {
      "bufferView": 0,
      "byteOffset": 442944,
      "componentType": 5125,
      "count": 45960,
      "type": "SCALAR"
    },
    {
      "bufferView": 1,
      "byteOffset": 655656,
      "componentType": 5126,
      "count": 576,
      "max": [
        3.6929683685302734,
        0.7982625365257263,
        1.7870979309082031
      ],
      "min": [
        -3.6929683685302734,
        -0.798262357711792,
        -1.7870984077453613
      ],
      "type": "VEC3"
    },
    {
      "bufferView": 1,
      "byteOffset": 662568,
      "componentType": 5126,
      "count": 576,
      "max": [
        0.9861484169960022,
        0.9207358360290527,
        0.9772959351539612
      ],
      "min": [
        -0.9908214807510376,
        -0.9363247752189636,
        -0.9974331259727478
      ],
      "type": "VEC3"
    },
    {
      "bufferView": 0,
      "byteOffset": 626784,
      "componentType": 5125,
      "count": 576,
      "type": "SCALAR"
    },
    {
      "bufferView": 1,
      "byteOffset": 669480,
      "componentType": 5126,
      "count": 6901,
      "max": [
        3.2069549560546875,
        4.123710632324219,
        5.206242084503174
      ],
      "min": [
        -3.190730094909668,
        -4.123729705810547,
        -5.1734490394592285
      ],
      "type": "VEC3"
    },
    {
      "bufferView": 1,
      "byteOffset": 752292,
      "componentType": 5126,
      "count": 6901,
      "max": [
        0.9999608397483826,
        1.0,
        0.9993996620178223
      ],
      "min": [
        -0.999870240688324,
        -1.0,
        -0.9999918937683105
      ],
      "type": "VEC3"
    },
    {
      "bufferView": 0,
      "byteOffset": 629088,
      "componentType": 5125,
      "count": 41352,
      "type": "SCALAR"
    },
    {
      "bufferView": 1,
      "byteOffset": 835104,
      "componentType": 5126,
      "count": 11784,
      "max": [
        4.81776237487793,
        6.689486026763916,
        2.3572194576263428
      ],
      "min": [
        -4.841635704040527,
        -6.689503192901611,
        -2.382129669189453
      ],
      "type": "VEC3"
    },
    {
      "bufferView": 1,
      "byteOffset": 976512,
      "componentType": 5126,
      "count": 11784,
      "max": [
        0.9998206496238708,
        0.9999545812606812,
        0.999751091003418
      ],
      "min": [
        -0.9260565638542175,
        -0.9999958276748657,
        -0.9999663233757019
      ],
      "type": "VEC3"
    },
    {
      "bufferView": 0,
      "byteOffset": 794496,
      "componentType": 5125,
      "count": 69456,
      "type": "SCALAR"
    },
    {
      "bufferView": 1,
      "byteOffset": 1117920,
      "componentType": 5126,
      "count": 29563,
      "max": [
        2.87318754196167,
        5.387388706207275,
        2.334876298904419
      ],
      "min": [
        -2.8775012493133545,
        -5.387775897979736,
        -2.330927610397339
      ],
      "type": "VEC3"
    },
    {
      "bufferView": 1,
      "byteOffset": 1472676,
      "componentType": 5126,
      "count": 29563,
      "max": [
        0.9999992847442627,
        0.9996711611747742,
        0.9999934434890747
      ],
      "min": [
        -0.9999967813491821,
        -0.9998953938484192,
        -0.9999735951423645
      ],
      "type": "VEC3"
    },
    {
      "bufferView": 0,
      "byteOffset": 1072320,
      "componentType": 5125,
      "count": 177300,
      "type": "SCALAR"
    }
  ],
  "asset": {
    "extras": {
      "author": "arifhas (https://sketchfab.com/arifhas)",
      "license": "CC-BY-4.0 (http://creativecommons.org/licenses/by/4.0/)",
      "source": "https://sketchfab.com/3d-models/brain-e45c5753fdbf4b99b96f2c110622b945",
      "title": "Brain"
    },
    "generator": "Sketchfab-12.67.0",
    "version": "2.0"
  },
  "bufferViews": [
    {
      "buffer": 0,
      "byteLength": 1781520,
      "name": "floatBufferViews",
      "target": 34963
    },
    {
      "buffer": 0,
      "byteLength": 1827432,
      "byteOffset": 1781520,
      "byteStride": 12,
      "name": "floatBufferViews",
      "target": 34962
    }
  ],
  "buffers": [
    {
      "byteLength": 3608952,
      "uri": "scene.bin"
    }
  ],
  "materials": [
    {
      "doubleSided": true,
      "name": "01_-_Default",
      "pbrMetallicRoughness": {
        "baseColorFactor": [
          0.588235,
          0.588235,
          0.588235,
          1.0
        ],
        "metallicFactor": 0.0,
        "roughnessFactor": 0.9493255840905294
      }
    }
  ],
  "meshes": [
    {
      "name": "pitua_01 - Default_0",
      "primitives": [
        {
          "attributes": {
            "NORMAL": 1,
            "POSITION": 0
          },
          "indices": 2,
          "material": 0,
          "mode": 4
        }
      ]
    },
    {
      "name": "frontal_01 - Default_0",
      "primitives": [
        {
          "attributes": {
            "NORMAL": 4,
            "POSITION": 3
          },
          "indices": 5,
          "material": 0,
          "mode": 4
        }
      ]
    },
    {
      "name": "occipit_01 - Default_0",
      "primitives": [
        {
          "attributes": {
            "NORMAL": 7,
            "POSITION": 6
          },
          "indices": 8,
          "material": 0,
          "mode": 4
        }
      ]
    },
    {
      "name": "pariet_01 - Default_0",
      "primitives": [
        {
          "attributes": {
            "NORMAL": 10,
            "POSITION": 9
          },
          "indices": 11,
          "material": 0,
          "mode": 4
        }
      ]
    },
    {
      "name": "corpus_01 - Default_0",
      "primitives": [
        {
          "attributes": {
            "NORMAL": 13,
            "POSITION": 12
          },
          "indices": 14,
          "material": 0,
          "mode": 4
        }
      ]
    },
    {
      "name": "stem_01 - Default_0",
      "primitives": [
        {
          "attributes": {
            "NORMAL": 16,
            "POSITION": 15
          },
          "indices": 17,
          "material": 0,
          "mode": 4
        }
      ]
    },
    {
      "name": "temp_01 - Default_0",
      "primitives": [
        {
          "attributes": {
            "NORMAL": 19,
            "POSITION": 18
          },
          "indices": 20,
          "material": 0,
          "mode": 4
        }
      ]
    },
    {
      "name": "cereb_01 - Default_0",
      "primitives": [
        {
          "attributes": {
            "NORMAL": 22,
            "POSITION": 21
          },
          "indices": 23,
          "material": 0,
          "mode": 4
        }
      ]
    }
  ],
  "nodes": [
    {
      "children": [
        1
      ],
      "matrix": [
        1.0,
        0.0,
        0.0,
        0.0,
        0.0,
        2.220446049250313e-16,
        -1.0,
        0.0,
        0.0,
        1.0,
        2.220446049250313e-16,
        0.0,
        0.0,
        0.0,
        0.0,
        1.0
      ],
      "name": "Sketchfab_model"
    },
    {
      "children": [
        2
      ],
      "matrix": [
        1.0,
        0.0,
        0.0,
        0.0,
        0.0,
        0.0,
        1.0,
        0.0,
        0.0,
        -1.0,
        0.0,
        0.0,
        0.0,
        0.0,
        0.0,
        1.0
      ],
      "name": "d4271e74e3d4457790cbbf48519fa724.fbx"
    },
    {
      "children": [
        3
      ],
      "name": "RootNode"
    },
    {
      "children": [
        4,
        6,
        8,
        10,
        12,
        14,
        16,
        18
      ],
      "matrix": [
        1.977174997329712,
        0.0,
        0.0,
        0.0,
        0.0,
        4.390210411497257e-16,
        -1.977174997329712,
        0.0,
        0.0,
        1.977174997329712,
        4.390210411497257e-16,
        0.0,
        17.57001495361328,
        2.856053113937378,
        -0.26054424047470093,
        1.0
      ],
      "name": "Group001"
    },
    {
      "children": [
        5
      ],
      "matrix": [
        1.0,
        0.0,
        0.0,
        0.0,
        0.0,
        1.0,
        1.232595164407831e-32,
        0.0,
        0.0,
        -1.232595164407831e-32,
        1.0,
        0.0,
        2.0255374908447266,
        0.26647311449050903,
        -2.2503013610839844,
        1.0
      ],
      "name": "pitua"
    },
    {
      "mesh": 0,
      "name": "pitua_01 - Default_0"
    },
    {
      "children": [
        7
      ],
      "matrix": [
        1.0,
        0.0,
        0.0,
        0.0,
        0.0,
        1.0,
        1.232595164407831e-32,
        0.0,
        0.0,
        -1.232595164407831e-32,
        1.0,
        0.0,
        3.2643680572509766,
        -4.076957702636719e-05,
        2.8833513259887695,
        1.0
      ],
      "name": "frontal"
    },
    {
      "mesh": 1,
      "name": "frontal_01 - Default_0"
    },
    {
      "children": [
        9
      ],
      "matrix": [
        1.0,
        0.0,
        0.0,
        0.0,
        0.0,
        1.0,
        1.232595164407831e-32,
        0.0,
        0.0,
        -1.232595164407831e-32,
        1.0,
        0.0,
        -5.812712669372559,
        7.939338684082031e-05,
        -0.37600719928741455,
        1.0
      ],
      "name": "occipit"
    },
    {
      "mesh": 2,
      "name": "occipit_01 - Default_0"
    },
    {
      "children": [
        11
      ],
      "matrix": [
        1.0,
        0.0,
        0.0,
        0.0,
        0.0,
        1.0,
        1.232595164407831e-32,
        0.0,
        0.0,
        -1.232595164407831e-32,
        1.0,
        0.0,
        -3.081037998199463,
        3.553926944732666e-05,
        3.596904754638672,
        1.0
      ],
      "name": "pariet"
    },
    {
      "mesh": 3,
      "name": "pariet_01 - Default_0"
    },
    {
      "children": [
        13
      ],
      "matrix": [
        1.0,
        0.0,
        0.0,
        0.0,
        0.0,
        1.0,
        1.232595164407831e-32,
        0.0,
        0.0,
        -1.232595164407831e-32,
        1.0,
        0.0,
        0.48552894592285156,
        -2.168118953704834e-05,
        1.953748345375061,
        1.0
      ],
      "name": "corpus"
    },
    {
      "mesh": 4,
      "name": "corpus_01 - Default_0"
    },
    {
      "children": [
        15
      ],
      "matrix": [
        1.0,
        0.0,
        0.0,
        0.0,
        0.0,
        1.0,
        1.232595164407831e-32,
        0.0,
        0.0,
        -1.232595164407831e-32,
        1.0,
        0.0,
        0.6387119293212891,
        0.2665531635284424,
        -1.9252128601074219,
        1.0
      ],
      "name": "stem"
    },
    {
      "mesh": 5,
      "name": "stem_01 - Default_0"
    },
    {
      "children": [
        17
      ],
      "matrix": [
        1.0,
        0.0,
        0.0,
        0.0,
        0.0,
        1.0,
        1.232595164407831e-32,
        0.0,
        0.0,
        -1.232595164407831e-32,
        1.0,
        0.0,
        0.11274147033691406,
        8.821487426757813e-06,
        -0.8256543874740601,
        1.0
      ],
      "name": "temp"
    },
    {
      "mesh": 6,
      "name": "temp_01 - Default_0"
    },
    {
      "children": [
        19
      ],
      "matrix": [
        1.0,
        0.0,
        0.0,
        0.0,
        0.0,
        1.0,
        1.232595164407831e-32,
        0.0,
        0.0,
        -1.232595164407831e-32,
        1.0,
        0.0,
        -3.0356736183166504,
        0.26659899950027466,
        -3.0860795974731445,
        1.0
      ],
      "name": "cereb"
    },
    {
      "mesh": 7,
      "name": "cereb_01 - Default_0"
    }
  ],
  "scene": 0,
  "scenes": [
    {
      "name": "Sketchfab_Scene",
      "nodes": [
        0
      ]
    }
  ]
}
